<svg width="23" height="26" viewBox="0 0 23 26" fill="none" xmlns="http://www.w3.org/2000/svg">
<path d="M15.4375 19.6667H22L20.156 17.7934C19.6559 17.2854 19.375 16.5964 19.375 15.8779V11.6667C19.375 8.18342 17.1836 5.22012 14.125 4.12189V3.66667C14.125 2.19391 12.9497 1 11.5 1C10.0503 1 8.875 2.19391 8.875 3.66667V4.12189C5.81637 5.22012 3.625 8.18342 3.625 11.6667V15.8779C3.625 16.5964 3.34406 17.2854 2.84397 17.7934L1 19.6667H7.5625M15.4375 19.6667V21C15.4375 23.2091 13.6746 25 11.5 25C9.32538 25 7.5625 23.2091 7.5625 21V19.6667M15.4375 19.6667H7.5625" stroke="#111827" stroke-width="2" stroke-linecap="round" stroke-linejoin="round"/>
</svg>
